<svg width="180" height="78" viewBox="0 0 180 78" fill="none" xmlns="http://www.w3.org/2000/svg">
<rect width="9.47368" height="8" rx="4" fill="#ABC4AA"/>
<rect y="16" width="9.47368" height="8" rx="4" fill="#ABC4AA"/>
<rect y="14" width="9.47368" height="8" rx="4" fill="#ABC4AA"/>
<rect y="19" width="9.47368" height="8" rx="4" fill="#ABC4AA"/>
<rect y="35" width="9.47368" height="8" rx="4" fill="#ABC4AA"/>
<rect y="51" width="9.47368" height="8" rx="4" fill="#ABC4AA"/>
<rect y="50" width="9.47368" height="8" rx="4" fill="#ABC4AA"/>
<rect y="54" width="9.47368" height="8" rx="4" fill="#ABC4AA"/>
<rect y="70" width="9.47368" height="8" rx="4" fill="#ABC4AA"/>
<rect x="18.9473" width="9.47368" height="8" rx="4" fill="#ABC4AA"/>
<rect x="18.9473" y="16" width="9.47368" height="8" rx="4" fill="#ABC4AA"/>
<rect x="18.9473" y="14" width="9.47368" height="8" rx="4" fill="#ABC4AA"/>
<rect x="18.9473" y="19" width="9.47368" height="8" rx="4" fill="#ABC4AA"/>
<rect x="18.9473" y="35" width="9.47368" height="8" rx="4" fill="#ABC4AA"/>
<rect x="18.9473" y="51" width="9.47368" height="8" rx="4" fill="#ABC4AA"/>
<rect x="18.9473" y="50" width="9.47368" height="8" rx="4" fill="#ABC4AA"/>
<rect x="18.9473" y="54" width="9.47368" height="8" rx="4" fill="#ABC4AA"/>
<rect x="18.9473" y="70" width="9.47368" height="8" rx="4" fill="#ABC4AA"/>
<rect x="37.8945" width="9.47368" height="8" rx="4" fill="#ABC4AA"/>
<rect x="37.8945" y="16" width="9.47368" height="8" rx="4" fill="#ABC4AA"/>
<rect x="37.8945" y="14" width="9.47368" height="8" rx="4" fill="#ABC4AA"/>
<rect x="37.8945" y="19" width="9.47368" height="8" rx="4" fill="#ABC4AA"/>
<rect x="37.8945" y="35" width="9.47368" height="8" rx="4" fill="#ABC4AA"/>
<rect x="37.8945" y="51" width="9.47368" height="8" rx="4" fill="#ABC4AA"/>
<rect x="37.8945" y="50" width="9.47368" height="8" rx="4" fill="#ABC4AA"/>
<rect x="37.8945" y="54" width="9.47368" height="8" rx="4" fill="#ABC4AA"/>
<rect x="37.8945" y="70" width="9.47368" height="8" rx="4" fill="#ABC4AA"/>
<rect x="56.8423" width="9.47368" height="8" rx="4" fill="#ABC4AA"/>
<rect x="56.8423" y="16" width="9.47368" height="8" rx="4" fill="#ABC4AA"/>
<rect x="56.8423" y="14" width="9.47368" height="8" rx="4" fill="#ABC4AA"/>
<rect x="56.8423" y="19" width="9.47368" height="8" rx="4" fill="#ABC4AA"/>
<rect x="56.8423" y="35" width="9.47368" height="8" rx="4" fill="#ABC4AA"/>
<rect x="56.8423" y="51" width="9.47368" height="8" rx="4" fill="#ABC4AA"/>
<rect x="56.8423" y="50" width="9.47368" height="8" rx="4" fill="#ABC4AA"/>
<rect x="56.8423" y="54" width="9.47368" height="8" rx="4" fill="#ABC4AA"/>
<rect x="56.8423" y="70" width="9.47368" height="8" rx="4" fill="#ABC4AA"/>
<rect x="75.7896" width="9.47368" height="8" rx="4" fill="#ABC4AA"/>
<rect x="75.7896" y="16" width="9.47368" height="8" rx="4" fill="#ABC4AA"/>
<rect x="75.7896" y="14" width="9.47368" height="8" rx="4" fill="#ABC4AA"/>
<rect x="75.7896" y="19" width="9.47368" height="8" rx="4" fill="#ABC4AA"/>
<rect x="75.7896" y="35" width="9.47368" height="8" rx="4" fill="#ABC4AA"/>
<rect x="75.7896" y="51" width="9.47368" height="8" rx="4" fill="#ABC4AA"/>
<rect x="75.7896" y="50" width="9.47368" height="8" rx="4" fill="#ABC4AA"/>
<rect x="75.7896" y="54" width="9.47368" height="8" rx="4" fill="#ABC4AA"/>
<rect x="75.7896" y="70" width="9.47368" height="8" rx="4" fill="#ABC4AA"/>
<rect x="94.7368" width="9.47368" height="8" rx="4" fill="#ABC4AA"/>
<rect x="94.7368" y="16" width="9.47368" height="8" rx="4" fill="#ABC4AA"/>
<rect x="94.7368" y="14" width="9.47368" height="8" rx="4" fill="#ABC4AA"/>
<rect x="94.7368" y="19" width="9.47368" height="8" rx="4" fill="#ABC4AA"/>
<rect x="94.7368" y="35" width="9.47368" height="8" rx="4" fill="#ABC4AA"/>
<rect x="94.7368" y="51" width="9.47368" height="8" rx="4" fill="#ABC4AA"/>
<rect x="94.7368" y="50" width="9.47368" height="8" rx="4" fill="#ABC4AA"/>
<rect x="94.7368" y="54" width="9.47368" height="8" rx="4" fill="#ABC4AA"/>
<rect x="94.7368" y="70" width="9.47368" height="8" rx="4" fill="#ABC4AA"/>
<rect x="113.684" width="9.47368" height="8" rx="4" fill="#ABC4AA"/>
<rect x="113.684" y="16" width="9.47368" height="8" rx="4" fill="#ABC4AA"/>
<rect x="113.684" y="14" width="9.47368" height="8" rx="4" fill="#ABC4AA"/>
<rect x="113.684" y="19" width="9.47368" height="8" rx="4" fill="#ABC4AA"/>
<rect x="113.684" y="35" width="9.47368" height="8" rx="4" fill="#ABC4AA"/>
<rect x="113.684" y="51" width="9.47368" height="8" rx="4" fill="#ABC4AA"/>
<rect x="113.684" y="50" width="9.47368" height="8" rx="4" fill="#ABC4AA"/>
<rect x="113.684" y="54" width="9.47368" height="8" rx="4" fill="#ABC4AA"/>
<rect x="113.684" y="70" width="9.47368" height="8" rx="4" fill="#ABC4AA"/>
<rect x="132.631" width="9.47368" height="8" rx="4" fill="#ABC4AA"/>
<rect x="132.631" y="16" width="9.47368" height="8" rx="4" fill="#ABC4AA"/>
<rect x="132.631" y="14" width="9.47368" height="8" rx="4" fill="#ABC4AA"/>
<rect x="132.631" y="19" width="9.47368" height="8" rx="4" fill="#ABC4AA"/>
<rect x="132.631" y="35" width="9.47368" height="8" rx="4" fill="#ABC4AA"/>
<rect x="132.631" y="51" width="9.47368" height="8" rx="4" fill="#ABC4AA"/>
<rect x="132.631" y="50" width="9.47368" height="8" rx="4" fill="#ABC4AA"/>
<rect x="132.631" y="54" width="9.47368" height="8" rx="4" fill="#ABC4AA"/>
<rect x="132.631" y="70" width="9.47368" height="8" rx="4" fill="#ABC4AA"/>
<rect x="151.579" width="9.47368" height="8" rx="4" fill="#ABC4AA"/>
<rect x="151.579" y="16" width="9.47368" height="8" rx="4" fill="#ABC4AA"/>
<rect x="151.579" y="14" width="9.47368" height="8" rx="4" fill="#ABC4AA"/>
<rect x="151.579" y="19" width="9.47368" height="8" rx="4" fill="#ABC4AA"/>
<rect x="151.579" y="35" width="9.47368" height="8" rx="4" fill="#ABC4AA"/>
<rect x="151.579" y="51" width="9.47368" height="8" rx="4" fill="#ABC4AA"/>
<rect x="151.579" y="50" width="9.47368" height="8" rx="4" fill="#ABC4AA"/>
<rect x="151.579" y="54" width="9.47368" height="8" rx="4" fill="#ABC4AA"/>
<rect x="151.579" y="70" width="9.47368" height="8" rx="4" fill="#ABC4AA"/>
<rect x="170.526" width="9.47368" height="8" rx="4" fill="#ABC4AA"/>
<rect x="170.526" y="16" width="9.47368" height="8" rx="4" fill="#ABC4AA"/>
<rect x="170.526" y="14" width="9.47368" height="8" rx="4" fill="#ABC4AA"/>
<rect x="170.526" y="19" width="9.47368" height="8" rx="4" fill="#ABC4AA"/>
<rect x="170.526" y="35" width="9.47368" height="8" rx="4" fill="#ABC4AA"/>
<rect x="170.526" y="51" width="9.47368" height="8" rx="4" fill="#ABC4AA"/>
<rect x="170.526" y="50" width="9.47368" height="8" rx="4" fill="#ABC4AA"/>
<rect x="170.526" y="54" width="9.47368" height="8" rx="4" fill="#ABC4AA"/>
<rect x="170.526" y="70" width="9.47368" height="8" rx="4" fill="#ABC4AA"/>
</svg>
