<svg width="152" height="122" viewBox="0 0 152 122" fill="none" xmlns="http://www.w3.org/2000/svg">
<rect width="8" height="8" rx="4" fill="#ABC4AA"/>
<rect y="16" width="8" height="8" rx="4" fill="#ABC4AA"/>
<rect y="28" width="8" height="8" rx="4" fill="#ABC4AA"/>
<rect y="44" width="8" height="8" rx="4" fill="#ABC4AA"/>
<rect y="57" width="8" height="8" rx="4" fill="#ABC4AA"/>
<rect y="71" width="8" height="8" rx="4" fill="#ABC4AA"/>
<rect y="87" width="8" height="8" rx="4" fill="#ABC4AA"/>
<rect y="100" width="8" height="8" rx="4" fill="#ABC4AA"/>
<rect y="114" width="8" height="8" rx="4" fill="#ABC4AA"/>
<rect x="16" width="8" height="8" rx="4" fill="#ABC4AA"/>
<rect x="16" y="16" width="8" height="8" rx="4" fill="#ABC4AA"/>
<rect x="16" y="28" width="8" height="8" rx="4" fill="#ABC4AA"/>
<rect x="16" y="44" width="8" height="8" rx="4" fill="#ABC4AA"/>
<rect x="16" y="57" width="8" height="8" rx="4" fill="#ABC4AA"/>
<rect x="16" y="71" width="8" height="8" rx="4" fill="#ABC4AA"/>
<rect x="16" y="87" width="8" height="8" rx="4" fill="#ABC4AA"/>
<rect x="16" y="100" width="8" height="8" rx="4" fill="#ABC4AA"/>
<rect x="16" y="114" width="8" height="8" rx="4" fill="#ABC4AA"/>
<rect x="32" width="8" height="8" rx="4" fill="#ABC4AA"/>
<rect x="32" y="16" width="8" height="8" rx="4" fill="#ABC4AA"/>
<rect x="32" y="28" width="8" height="8" rx="4" fill="#ABC4AA"/>
<rect x="32" y="44" width="8" height="8" rx="4" fill="#ABC4AA"/>
<rect x="32" y="57" width="8" height="8" rx="4" fill="#ABC4AA"/>
<rect x="32" y="71" width="8" height="8" rx="4" fill="#ABC4AA"/>
<rect x="32" y="87" width="8" height="8" rx="4" fill="#ABC4AA"/>
<rect x="32" y="100" width="8" height="8" rx="4" fill="#ABC4AA"/>
<rect x="32" y="114" width="8" height="8" rx="4" fill="#ABC4AA"/>
<rect x="48" width="8" height="8" rx="4" fill="#ABC4AA"/>
<rect x="48" y="16" width="8" height="8" rx="4" fill="#ABC4AA"/>
<rect x="48" y="28" width="8" height="8" rx="4" fill="#ABC4AA"/>
<rect x="48" y="44" width="8" height="8" rx="4" fill="#ABC4AA"/>
<rect x="48" y="57" width="8" height="8" rx="4" fill="#ABC4AA"/>
<rect x="48" y="71" width="8" height="8" rx="4" fill="#ABC4AA"/>
<rect x="48" y="87" width="8" height="8" rx="4" fill="#ABC4AA"/>
<rect x="48" y="100" width="8" height="8" rx="4" fill="#ABC4AA"/>
<rect x="48" y="114" width="8" height="8" rx="4" fill="#ABC4AA"/>
<rect x="64" width="8" height="8" rx="4" fill="#ABC4AA"/>
<rect x="64" y="16" width="8" height="8" rx="4" fill="#ABC4AA"/>
<rect x="64" y="28" width="8" height="8" rx="4" fill="#ABC4AA"/>
<rect x="64" y="44" width="8" height="8" rx="4" fill="#ABC4AA"/>
<rect x="64" y="57" width="8" height="8" rx="4" fill="#ABC4AA"/>
<rect x="64" y="71" width="8" height="8" rx="4" fill="#ABC4AA"/>
<rect x="64" y="87" width="8" height="8" rx="4" fill="#ABC4AA"/>
<rect x="64" y="100" width="8" height="8" rx="4" fill="#ABC4AA"/>
<rect x="64" y="114" width="8" height="8" rx="4" fill="#ABC4AA"/>
<rect x="80" width="8" height="8" rx="4" fill="#ABC4AA"/>
<rect x="80" y="16" width="8" height="8" rx="4" fill="#ABC4AA"/>
<rect x="80" y="28" width="8" height="8" rx="4" fill="#ABC4AA"/>
<rect x="80" y="44" width="8" height="8" rx="4" fill="#ABC4AA"/>
<rect x="80" y="57" width="8" height="8" rx="4" fill="#ABC4AA"/>
<rect x="80" y="71" width="8" height="8" rx="4" fill="#ABC4AA"/>
<rect x="80" y="87" width="8" height="8" rx="4" fill="#ABC4AA"/>
<rect x="80" y="100" width="8" height="8" rx="4" fill="#ABC4AA"/>
<rect x="80" y="114" width="8" height="8" rx="4" fill="#ABC4AA"/>
<rect x="96" width="8" height="8" rx="4" fill="#ABC4AA"/>
<rect x="96" y="16" width="8" height="8" rx="4" fill="#ABC4AA"/>
<rect x="96" y="28" width="8" height="8" rx="4" fill="#ABC4AA"/>
<rect x="96" y="44" width="8" height="8" rx="4" fill="#ABC4AA"/>
<rect x="96" y="57" width="8" height="8" rx="4" fill="#ABC4AA"/>
<rect x="96" y="71" width="8" height="8" rx="4" fill="#ABC4AA"/>
<rect x="96" y="87" width="8" height="8" rx="4" fill="#ABC4AA"/>
<rect x="96" y="100" width="8" height="8" rx="4" fill="#ABC4AA"/>
<rect x="96" y="114" width="8" height="8" rx="4" fill="#ABC4AA"/>
<rect x="112" width="8" height="8" rx="4" fill="#ABC4AA"/>
<rect x="112" y="16" width="8" height="8" rx="4" fill="#ABC4AA"/>
<rect x="112" y="28" width="8" height="8" rx="4" fill="#ABC4AA"/>
<rect x="112" y="44" width="8" height="8" rx="4" fill="#ABC4AA"/>
<rect x="112" y="57" width="8" height="8" rx="4" fill="#ABC4AA"/>
<rect x="112" y="71" width="8" height="8" rx="4" fill="#ABC4AA"/>
<rect x="112" y="87" width="8" height="8" rx="4" fill="#ABC4AA"/>
<rect x="112" y="100" width="8" height="8" rx="4" fill="#ABC4AA"/>
<rect x="112" y="114" width="8" height="8" rx="4" fill="#ABC4AA"/>
<rect x="128" width="8" height="8" rx="4" fill="#ABC4AA"/>
<rect x="128" y="16" width="8" height="8" rx="4" fill="#ABC4AA"/>
<rect x="128" y="28" width="8" height="8" rx="4" fill="#ABC4AA"/>
<rect x="128" y="44" width="8" height="8" rx="4" fill="#ABC4AA"/>
<rect x="128" y="57" width="8" height="8" rx="4" fill="#ABC4AA"/>
<rect x="128" y="71" width="8" height="8" rx="4" fill="#ABC4AA"/>
<rect x="128" y="87" width="8" height="8" rx="4" fill="#ABC4AA"/>
<rect x="128" y="100" width="8" height="8" rx="4" fill="#ABC4AA"/>
<rect x="128" y="114" width="8" height="8" rx="4" fill="#ABC4AA"/>
<rect x="144" width="8" height="8" rx="4" fill="#ABC4AA"/>
<rect x="144" y="16" width="8" height="8" rx="4" fill="#ABC4AA"/>
<rect x="144" y="28" width="8" height="8" rx="4" fill="#ABC4AA"/>
<rect x="144" y="44" width="8" height="8" rx="4" fill="#ABC4AA"/>
<rect x="144" y="57" width="8" height="8" rx="4" fill="#ABC4AA"/>
<rect x="144" y="71" width="8" height="8" rx="4" fill="#ABC4AA"/>
<rect x="144" y="87" width="8" height="8" rx="4" fill="#ABC4AA"/>
<rect x="144" y="100" width="8" height="8" rx="4" fill="#ABC4AA"/>
<rect x="144" y="114" width="8" height="8" rx="4" fill="#ABC4AA"/>
</svg>
