<svg width="24" height="25" viewBox="0 0 24 25" fill="none" xmlns="http://www.w3.org/2000/svg">
<path opacity="0.2" d="M11.9999 21.4614C16.9705 21.4614 20.9999 17.432 20.9999 12.4614C20.9999 7.49086 16.9705 3.46143 11.9999 3.46143C7.02938 3.46143 2.99994 7.49086 2.99994 12.4614C2.99994 17.432 7.02938 21.4614 11.9999 21.4614Z" fill="black"/>
<path d="M11.9999 21.4614C16.9705 21.4614 20.9999 17.432 20.9999 12.4614C20.9999 7.49086 16.9705 3.46143 11.9999 3.46143C7.02938 3.46143 2.99994 7.49086 2.99994 12.4614C2.99994 17.432 7.02938 21.4614 11.9999 21.4614Z" stroke="black" stroke-width="1.53366" stroke-linecap="round" stroke-linejoin="round"/>
<path d="M15.7501 8.71145H14.2501C13.9543 8.71021 13.6611 8.76756 13.3876 8.88019C13.114 8.99282 12.8655 9.15851 12.6563 9.36769C12.4471 9.57687 12.2815 9.8254 12.1688 10.0989C12.0562 10.3725 11.9988 10.6656 12.0001 10.9614V21.4614" stroke="black" stroke-width="1.53366" stroke-linecap="round" stroke-linejoin="round"/>
<path d="M8.99994 13.9614H14.9999" stroke="black" stroke-width="1.53366" stroke-linecap="round" stroke-linejoin="round"/>
</svg>
