<svg width="32" height="32" viewBox="0 0 32 32" fill="none" xmlns="http://www.w3.org/2000/svg">
<rect width="32" height="32" rx="16" fill="#B8DA8D"/>
<path opacity="0.2" d="M16.3437 20.8985L20.2812 23.3985C20.7891 23.7188 21.4141 23.2422 21.2656 22.6563L20.125 18.1719C20.0942 18.0476 20.0991 17.9171 20.1391 17.7955C20.1792 17.6738 20.2529 17.566 20.3516 17.4844L23.8828 14.5391C24.3437 14.1563 24.1094 13.3828 23.5078 13.3438L18.8984 13.0469C18.7727 13.0396 18.6518 12.9958 18.5505 12.9209C18.4492 12.8459 18.3719 12.7431 18.3281 12.625L16.6094 8.29689C16.5639 8.17182 16.481 8.06377 16.372 7.98742C16.263 7.91107 16.1331 7.87012 16 7.87012C15.8669 7.87012 15.737 7.91107 15.628 7.98742C15.519 8.06377 15.4361 8.17182 15.3906 8.29689L13.6719 12.625C13.6281 12.7431 13.5508 12.8459 13.4495 12.9209C13.3482 12.9958 13.2273 13.0396 13.1016 13.0469L8.49218 13.3438C7.89062 13.3828 7.65625 14.1563 8.11718 14.5391L11.6484 17.4844C11.7471 17.566 11.8208 17.6738 11.8609 17.7955C11.9009 17.9171 11.9058 18.0476 11.875 18.1719L10.8203 22.3281C10.6406 23.0313 11.3906 23.6016 11.9922 23.2188L15.6562 20.8985C15.759 20.8331 15.8782 20.7984 16 20.7984C16.1218 20.7984 16.241 20.8331 16.3437 20.8985Z" fill="black"/>
<path d="M16.3437 20.8985L20.2812 23.3985C20.7891 23.7188 21.4141 23.2422 21.2656 22.6563L20.125 18.1719C20.0942 18.0476 20.0991 17.9171 20.1391 17.7955C20.1792 17.6738 20.2529 17.566 20.3516 17.4844L23.8828 14.5391C24.3437 14.1563 24.1094 13.3828 23.5078 13.3438L18.8984 13.0469C18.7727 13.0396 18.6518 12.9958 18.5505 12.9209C18.4492 12.8459 18.3719 12.7431 18.3281 12.625L16.6094 8.29689C16.5639 8.17182 16.481 8.06377 16.372 7.98742C16.263 7.91107 16.1331 7.87012 16 7.87012C15.8669 7.87012 15.737 7.91107 15.628 7.98742C15.519 8.06377 15.4361 8.17182 15.3906 8.29689L13.6719 12.625C13.6281 12.7431 13.5508 12.8459 13.4495 12.9209C13.3482 12.9958 13.2273 13.0396 13.1016 13.0469L8.49218 13.3438C7.89062 13.3828 7.65625 14.1563 8.11718 14.5391L11.6484 17.4844C11.7471 17.566 11.8208 17.6738 11.8609 17.7955C11.9009 17.9171 11.9058 18.0476 11.875 18.1719L10.8203 22.3281C10.6406 23.0313 11.3906 23.6016 11.9922 23.2188L15.6562 20.8985C15.759 20.8331 15.8782 20.7984 16 20.7984C16.1218 20.7984 16.241 20.8331 16.3437 20.8985V20.8985Z" stroke="black" stroke-width="1.25" stroke-linecap="round" stroke-linejoin="round"/>
</svg>
