<svg width="24" height="25" viewBox="0 0 24 25" fill="none" xmlns="http://www.w3.org/2000/svg">
<path opacity="0.2" d="M16.1249 3.83643H7.87494C6.68146 3.83643 5.53687 4.31053 4.69296 5.15445C3.84904 5.99836 3.37494 7.14295 3.37494 8.33643V16.5864C3.37494 17.7799 3.84904 18.9245 4.69296 19.7684C5.53687 20.6123 6.68146 21.0864 7.87494 21.0864H16.1249C17.3184 21.0864 18.463 20.6123 19.3069 19.7684C20.1508 18.9245 20.6249 17.7799 20.6249 16.5864V8.33643C20.6249 7.14295 20.1508 5.99836 19.3069 5.15445C18.463 4.31053 17.3184 3.83643 16.1249 3.83643ZM11.9999 16.2114C11.2583 16.2114 10.5332 15.9915 9.91655 15.5794C9.29987 15.1674 8.81922 14.5817 8.53539 13.8965C8.25156 13.2113 8.1773 12.4573 8.32199 11.7298C8.46669 11.0024 8.82384 10.3342 9.34829 9.80978C9.87274 9.28533 10.5409 8.92818 11.2684 8.78348C11.9958 8.63879 12.7498 8.71305 13.435 8.99688C14.1202 9.28071 14.7059 9.76135 15.118 10.378C15.53 10.9947 15.7499 11.7197 15.7499 12.4614C15.7499 13.456 15.3549 14.4098 14.6516 15.1131C13.9483 15.8163 12.9945 16.2114 11.9999 16.2114Z" fill="black"/>
<path d="M12 16.2114C14.0711 16.2114 15.75 14.5325 15.75 12.4614C15.75 10.3904 14.0711 8.71143 12 8.71143C9.92893 8.71143 8.25 10.3904 8.25 12.4614C8.25 14.5325 9.92893 16.2114 12 16.2114Z" stroke="black" stroke-width="1.53366" stroke-miterlimit="10"/>
<path d="M16.1249 3.83643H7.87494C5.38966 3.83643 3.37494 5.85114 3.37494 8.33643V16.5864C3.37494 19.0717 5.38966 21.0864 7.87494 21.0864H16.1249C18.6102 21.0864 20.6249 19.0717 20.6249 16.5864V8.33643C20.6249 5.85114 18.6102 3.83643 16.1249 3.83643Z" stroke="black" stroke-width="1.53366" stroke-linecap="round" stroke-linejoin="round"/>
<path d="M16.875 8.71143C17.4963 8.71143 18 8.20775 18 7.58643C18 6.96511 17.4963 6.46143 16.875 6.46143C16.2537 6.46143 15.75 6.96511 15.75 7.58643C15.75 8.20775 16.2537 8.71143 16.875 8.71143Z" fill="black"/>
</svg>
