<svg width="24" height="25" viewBox="0 0 24 25" fill="none" xmlns="http://www.w3.org/2000/svg">
<path opacity="0.2" d="M15.7501 10.3989C17.2801 11.4975 19.1166 12.0878 21.0001 12.0864V8.33643C19.6077 8.33643 18.2724 7.7833 17.2878 6.79874C16.3032 5.81417 15.7501 4.47881 15.7501 3.08643H12.0001V15.0864C12.0001 15.5562 11.874 16.0173 11.635 16.4217C11.396 16.8262 11.0529 17.159 10.6414 17.3856C10.2299 17.6123 9.76514 17.7243 9.2956 17.7101C8.82606 17.6958 8.36894 17.5559 7.97193 17.3047C7.57492 17.0536 7.25257 16.7006 7.03851 16.2824C6.82444 15.8643 6.72651 15.3964 6.75493 14.9275C6.78335 14.4586 6.93707 14.0059 7.20007 13.6166C7.46306 13.2274 7.82569 12.9159 8.25012 12.7146V8.81455C7.05629 9.02859 5.94829 9.57874 5.05618 10.4004C4.16406 11.2221 3.52487 12.2813 3.21361 13.4535C2.90236 14.6258 2.93197 15.8625 3.29897 17.0185C3.66597 18.1745 4.35512 19.2018 5.28553 19.9799C6.21595 20.7579 7.34901 21.2544 8.55172 21.4111C9.75443 21.5678 10.9769 21.3781 12.0755 20.8643C13.1742 20.3505 14.1035 19.534 14.7544 18.5106C15.4053 17.4872 15.7507 16.2993 15.7501 15.0864V10.3989Z" fill="black"/>
<path d="M15.7501 10.3989C17.2801 11.4975 19.1166 12.0878 21.0001 12.0864V8.33643C19.6077 8.33643 18.2724 7.7833 17.2878 6.79874C16.3032 5.81417 15.7501 4.47881 15.7501 3.08643H12.0001V15.0864C12.0001 15.5562 11.874 16.0173 11.635 16.4217C11.396 16.8262 11.0529 17.159 10.6414 17.3856C10.2299 17.6123 9.76514 17.7243 9.2956 17.7101C8.82606 17.6958 8.36894 17.5559 7.97193 17.3047C7.57492 17.0536 7.25257 16.7006 7.03851 16.2824C6.82444 15.8643 6.72651 15.3964 6.75493 14.9275C6.78335 14.4586 6.93707 14.0059 7.20007 13.6166C7.46306 13.2274 7.82569 12.9159 8.25012 12.7146V8.81455C7.05629 9.02859 5.94829 9.57874 5.05618 10.4004C4.16406 11.2221 3.52487 12.2813 3.21361 13.4535C2.90236 14.6258 2.93197 15.8625 3.29897 17.0185C3.66597 18.1745 4.35512 19.2018 5.28553 19.9799C6.21595 20.7579 7.34901 21.2544 8.55172 21.4111C9.75443 21.5678 10.9769 21.3781 12.0755 20.8643C13.1742 20.3505 14.1035 19.534 14.7544 18.5106C15.4053 17.4872 15.7507 16.2993 15.7501 15.0864V10.3989Z" stroke="black" stroke-width="1.50482" stroke-linecap="round" stroke-linejoin="round"/>
</svg>
