<svg width="24" height="25" viewBox="0 0 24 25" fill="none" xmlns="http://www.w3.org/2000/svg">
<path opacity="0.2" d="M12.0001 8.71152C12.0001 6.64902 13.7345 4.9334 15.797 4.96152C16.5192 4.96986 17.2238 5.18663 17.8258 5.58578C18.4279 5.98493 18.9018 6.54946 19.1907 7.21152H22.5001L19.472 10.2396C19.2765 13.2814 17.93 16.1346 15.7062 18.2191C13.4824 20.3037 10.5481 21.463 7.50008 21.4615C4.50008 21.4615 3.75008 20.3365 3.75008 20.3365C3.75008 20.3365 6.75008 19.2115 8.25008 16.9615C8.25008 16.9615 2.25008 13.9615 3.75008 5.71152C3.75008 5.71152 7.50008 9.46152 12.0001 10.2115V8.71152Z" fill="black"/>
<path d="M12.0001 8.71152C12.0001 6.64902 13.7345 4.9334 15.797 4.96152C16.5193 4.96986 17.2238 5.18663 17.8258 5.58578C18.4279 5.98493 18.9018 6.54946 19.1907 7.21152H22.5001L19.472 10.2396C19.2765 13.2814 17.93 16.1346 15.7062 18.2191C13.4824 20.3037 10.5481 21.463 7.50008 21.4615C4.50008 21.4615 3.75008 20.3365 3.75008 20.3365C3.75008 20.3365 6.75008 19.2115 8.25008 16.9615C8.25008 16.9615 2.25008 13.9615 3.75008 5.71152C3.75008 5.71152 7.50008 9.46152 12.0001 10.2115V8.71152Z" stroke="black" stroke-width="1.53366" stroke-linecap="round" stroke-linejoin="round"/>
</svg>
