<svg width="24" height="25" viewBox="0 0 24 25" fill="none" xmlns="http://www.w3.org/2000/svg">
<path opacity="0.2" d="M21.2437 7.19271C21.1842 6.96377 21.0718 6.75201 20.9155 6.57451C20.7591 6.39701 20.5633 6.25873 20.3437 6.17083C17.2031 4.97083 11.9999 4.99896 11.9999 4.99896C11.9999 4.99896 6.79681 4.97083 3.65619 6.17083C3.4366 6.25873 3.24074 6.39701 3.0844 6.57451C2.92807 6.75201 2.81564 6.96377 2.75619 7.19271C2.54056 8.03646 2.24994 9.66771 2.24994 12.4615C2.24994 15.2552 2.54056 16.8865 2.75619 17.7302C2.81564 17.9591 2.92807 18.1709 3.0844 18.3484C3.24074 18.5259 3.4366 18.6642 3.65619 18.7521C6.79681 19.9521 11.9999 19.924 11.9999 19.924C11.9999 19.924 17.2031 19.9521 20.3437 18.7521C20.5633 18.6642 20.7591 18.5259 20.9155 18.3484C21.0718 18.1709 21.1842 17.9591 21.2437 17.7302C21.4593 16.8865 21.7499 15.2552 21.7499 12.4615C21.7499 9.66771 21.4593 8.03646 21.2437 7.19271ZM10.4999 15.4615V9.46146L14.9999 12.4615L10.4999 15.4615Z" fill="black"/>
<path d="M14.9999 12.4614L10.4999 9.46143V15.4614L14.9999 12.4614Z" stroke="black" stroke-width="1.53366" stroke-linecap="round" stroke-linejoin="round"/>
<path d="M2.24994 12.4615C2.24994 15.2552 2.54056 16.8865 2.75619 17.7302C2.81564 17.9591 2.92807 18.1709 3.0844 18.3484C3.24074 18.5259 3.4366 18.6642 3.65619 18.7521C6.79681 19.9521 11.9999 19.924 11.9999 19.924C11.9999 19.924 17.2031 19.9521 20.3437 18.7521C20.5633 18.6642 20.7591 18.5259 20.9155 18.3484C21.0718 18.1709 21.1842 17.9591 21.2437 17.7302C21.4593 16.8865 21.7499 15.2552 21.7499 12.4615C21.7499 9.66771 21.4593 8.03646 21.2437 7.19271C21.1842 6.96377 21.0718 6.75201 20.9155 6.57451C20.7591 6.39701 20.5633 6.25873 20.3437 6.17083C17.2031 4.97083 11.9999 4.99896 11.9999 4.99896C11.9999 4.99896 6.79681 4.97083 3.65619 6.17083C3.4366 6.25873 3.24074 6.39701 3.0844 6.57451C2.92807 6.75201 2.81564 6.96377 2.75619 7.19271C2.54056 8.03646 2.24994 9.66771 2.24994 12.4615Z" stroke="black" stroke-width="1.53366" stroke-linecap="round" stroke-linejoin="round"/>
</svg>
